<svg width="22" height="22" viewBox="0 0 22 22" fill="none" xmlns="http://www.w3.org/2000/svg">
<path d="M4.62502 19.7609C3.24272 18.7565 2.11799 17.4389 1.34294 15.9161C0.567895 14.3934 0.164578 12.7086 0.166019 11C0.166019 5.01671 5.0161 0.166626 10.9994 0.166626C16.9826 0.166626 21.8327 5.01671 21.8327 11C21.8341 12.7086 21.4308 14.3934 20.6558 15.9161C19.8807 17.4389 18.756 18.7565 17.3737 19.7609L16.2741 17.877C17.711 16.7748 18.7666 15.2501 19.2925 13.5172C19.8184 11.7843 19.7883 9.93013 19.2063 8.21522C18.6244 6.50031 17.5198 5.01078 16.0478 3.95587C14.5758 2.90096 12.8103 2.33366 10.9994 2.33366C9.18838 2.33366 7.42291 2.90096 5.95091 3.95587C4.47891 5.01078 3.37436 6.50031 2.79239 8.21522C2.21042 9.93013 2.18027 11.7843 2.70619 13.5172C3.23212 15.2501 4.28767 16.7748 5.7246 17.877L4.62502 19.7609ZM6.82852 15.9855C5.8048 15.129 5.06955 13.9782 4.72268 12.6893C4.37581 11.4004 4.43414 10.036 4.88973 8.7814C5.34532 7.52682 6.17609 6.44291 7.26916 5.67694C8.36223 4.91097 9.66461 4.50007 10.9994 4.50007C12.3341 4.50007 13.6365 4.91097 14.7295 5.67694C15.8226 6.44291 16.6534 7.52682 17.109 8.7814C17.5646 10.036 17.6229 11.4004 17.276 12.6893C16.9292 13.9782 16.1939 15.129 15.1702 15.9855L14.0544 14.0723C14.663 13.4673 15.0782 12.6952 15.2475 11.8539C15.4168 11.0126 15.3325 10.14 15.0053 9.34672C14.6781 8.55341 14.1227 7.87511 13.4095 7.39782C12.6963 6.92052 11.8575 6.66573 10.9994 6.66573C10.1412 6.66573 9.30237 6.92052 8.5892 7.39782C7.87603 7.87511 7.32063 8.55341 6.99341 9.34672C6.66619 10.14 6.58189 11.0126 6.75118 11.8539C6.92047 12.6952 7.33575 13.4673 7.94435 14.0723L6.82852 15.9855ZM9.91602 12.0833H12.0827V21.8333H9.91602V12.0833Z" fill="black"/>
</svg>
